<svg viewBox="0 0 100 100" xmlns="http://www.w3.org/2000/svg" role="img" aria-label="RIBA Lab">
  <defs>
    <radialGradient id="ribaBg" cx="38%" cy="32%" r="75%">
      <stop offset="0%" stop-color="#A88DBF"/>
      <stop offset="100%" stop-color="#2D1B2E"/>
    </radialGradient>
    <linearGradient id="ribaLiquid" x1="0" y1="0" x2="0" y2="1">
      <stop offset="0%" stop-color="#E04D77"/>
      <stop offset="100%" stop-color="#7A1A38"/>
    </linearGradient>
  </defs>
  <circle cx="50" cy="50" r="47" fill="url(#ribaBg)"/>
  <circle cx="50" cy="50" r="47" fill="none" stroke="#C9A045" stroke-width="1.5"/>
  <rect x="45" y="20" width="10" height="20" rx="1" fill="#FDF7F2" opacity=".95"/>
  <rect x="43" y="19" width="14" height="4" rx="2" fill="#C9A045"/>
  <path d="M45 38 L45 48 L32 72 Q30 77 35 77 L65 77 Q70 77 68 72 L55 48 L55 38 Z" fill="#FDF7F2" opacity=".95"/>
  <path d="M41 56 L34 71 Q33 74 36 74 L64 74 Q67 74 66 71 L59 56 Q50 53 41 56 Z" fill="url(#ribaLiquid)"/>
  <circle cx="46" cy="66" r="2" fill="rgba(255,255,255,.35)"/>
  <circle cx="54" cy="69" r="1.5" fill="rgba(255,255,255,.3)"/>
  <circle cx="50" cy="63" r="1" fill="rgba(255,255,255,.25)"/>
  <line x1="57" y1="58" x2="60" y2="58" stroke="rgba(45,27,46,.25)" stroke-width=".8"/>
  <line x1="59" y1="63" x2="62" y2="63" stroke="rgba(45,27,46,.25)" stroke-width=".8"/>
  <path d="M38 68 Q40 60 44 54" stroke="rgba(255,255,255,.4)" stroke-width="2" fill="none" stroke-linecap="round"/>
</svg>
